<svg width="195" height="33" viewBox="0 0 195 33" fill="none" xmlns="http://www.w3.org/2000/svg">
  <path
    d="M28.9 5.39999H3.4C1.5 5.39999 0 6.89999 0 8.89999V14.3C0 16.2 1.5 17.7 3.4 17.7H29C30.9 17.7 32.4 16.2 32.4 14.3V8.89999C32.3 6.89999 30.8 5.39999 28.9 5.39999ZM28.9 7.89999C29.4 7.89999 29.8 8.29999 29.8 8.89999V14.3C29.8 14.8 29.4 15.3 28.9 15.3H3.4C2.9 15.3 2.5 14.9 2.5 14.3V8.89999C2.5 8.39999 2.9 7.89999 3.4 7.89999H28.9Z"
    fill="#575756"/>
  <path
    d="M23.9 0.299988H18.4C16.5 0.299988 14.9 1.79999 14.9 3.69999V29.3C14.9 31.2 16.5 32.7 18.4 32.7H23.9C25.8 32.7 27.4 31.2 27.4 29.3V3.69999C27.4 1.79999 25.8 0.299988 23.9 0.299988ZM23.9 2.79999C24.4 2.79999 24.9 3.19999 24.9 3.69999V29.3C24.9 29.8 24.5 30.2 23.9 30.2H18.4C17.9 30.2 17.4 29.8 17.4 29.3V3.69999C17.4 3.19999 17.8 2.79999 18.4 2.79999H23.9Z"
    fill="#9C9B9B"/>
  <path
    d="M182.1 24.1V9.39998H187C187.6 9.39998 188.1 9.49998 188.6 9.69998C189.1 9.89998 189.5 10.3 189.8 10.9C190.1 11.4 190.4 12.2 190.5 13.2C190.7 14.2 190.8 15.4 190.8 16.9C190.8 18.4 190.7 19.7 190.4 20.8C190.1 21.9 189.7 22.7 189.2 23.3C188.6 23.9 187.9 24.2 187 24.2H182.1V24.1ZM177.8 27.9H187.3C188.7 27.9 189.8 27.6 190.8 27.1C191.8 26.6 192.6 25.8 193.2 24.8C193.8 23.8 194.3 22.7 194.6 21.3C194.9 20 195 18.5 195 16.8C195 15.7 194.9 14.6 194.8 13.5C194.7 12.4 194.4 11.4 194.1 10.4C193.8 9.39998 193.3 8.59998 192.7 7.89998C192.1 7.19998 191.4 6.59998 190.5 6.19998C189.6 5.79998 188.5 5.59998 187.2 5.59998H177.7V27.9H177.8Z"
    fill="#1D1D1B"/>
  <path
    d="M163.3 15.7V9.39998H168.4C168.9 9.39998 169.2 9.49998 169.6 9.69998C169.9 9.89998 170.2 10.2 170.4 10.7C170.6 11.2 170.7 11.8 170.7 12.6C170.7 13.3 170.7 13.8 170.6 14.2C170.5 14.6 170.4 14.9 170.2 15.1C170 15.3 169.8 15.5 169.5 15.5C169.2 15.6 168.9 15.6 168.5 15.6H163.3V15.7ZM159 27.9H163.3V19L167 19.4L170.7 27.8H175.5L171.3 19C171.6 18.9 171.8 18.8 172.2 18.7C172.5 18.6 172.8 18.4 173.1 18.1C173.4 17.8 173.7 17.5 174 17C174.3 16.5 174.5 15.9 174.6 15.2C174.8 14.5 174.8 13.5 174.8 12.4C174.8 11.1 174.6 9.99998 174.3 9.09998C174 8.19998 173.6 7.49998 173 6.99998C172.5 6.49998 171.8 6.09998 171.1 5.89998C170.4 5.69998 169.5 5.59998 168.7 5.59998H159V27.9Z"
    fill="#1D1D1B"/>
  <path
    d="M144.6 19.2L147.3 11.2L149.8 19.2H144.6ZM137.3 27.9H141.9L143.5 23H150.8L152.4 27.9H156.9L149.7 5.59998H144.9L137.3 27.9Z"
    fill="#1D1D1B"/>
  <path
    d="M123.2 16.9C123.2 15.5 123.3 14.3 123.4 13.4C123.5 12.5 123.7 11.7 123.9 11.2C124.1 10.7 124.4 10.3 124.8 9.99999C125.2 9.69999 125.6 9.59999 126.1 9.49999C126.6 9.39999 127.2 9.39999 127.8 9.39999C128.5 9.39999 129.1 9.39999 129.6 9.49999C130.1 9.59999 130.6 9.79999 130.9 9.99999C131.3 10.3 131.6 10.7 131.8 11.2C132 11.7 132.2 12.5 132.3 13.4C132.4 14.3 132.5 15.5 132.5 16.8C132.5 18 132.5 19 132.4 19.8C132.3 20.6 132.1 21.3 131.9 21.9C131.7 22.4 131.4 22.9 131 23.2C130.6 23.5 130.2 23.7 129.7 23.8C129.2 23.9 128.5 24 127.8 24C127 24 126.4 23.9 125.9 23.8C125.4 23.7 124.9 23.5 124.6 23.2C124.2 22.9 124 22.5 123.8 22C123.6 21.5 123.5 20.8 123.4 19.9C123.3 19.2 123.2 18.1 123.2 16.9ZM119 16.9C119 18.6 119.1 20 119.3 21.2C119.5 22.4 119.8 23.4 120.1 24.2C120.5 25 120.9 25.7 121.4 26.2C121.9 26.7 122.5 27.1 123.2 27.3C123.9 27.6 124.6 27.7 125.4 27.8C126.2 27.9 127.1 27.9 128 27.9C128.9 27.9 129.8 27.9 130.6 27.8C131.4 27.7 132.1 27.5 132.8 27.2C133.5 26.9 134.1 26.5 134.6 26C135.1 25.5 135.6 24.8 135.9 24C136.3 23.2 136.5 22.2 136.7 21C136.9 19.8 137 18.4 137 16.8C137 15.1 136.9 13.6 136.7 12.3C136.5 11.1 136.2 9.99999 135.8 9.19999C135.4 8.39999 135 7.69999 134.5 7.19999C134 6.69999 133.4 6.29999 132.7 5.99999C132 5.69999 131.3 5.59999 130.5 5.49999C129.7 5.39999 128.9 5.39999 128 5.39999C127.1 5.39999 126.3 5.39999 125.6 5.49999C124.8 5.59999 124.1 5.79999 123.4 5.99999C122.7 6.29999 122.1 6.59999 121.6 7.19999C121.1 7.69999 120.6 8.39999 120.2 9.19999C119.8 9.99999 119.5 11.1 119.3 12.3C119.1 13.7 119 15.2 119 16.9Z"
    fill="#1D1D1B"/>
  <path
    d="M105.2 14.4V9.39999H109.9C110.2 9.39999 110.5 9.39999 110.7 9.49999C111 9.59999 111.2 9.69999 111.5 9.89999C111.7 10.1 111.9 10.3 112 10.7C112.1 11 112.2 11.5 112.2 12C112.2 12.8 112 13.4 111.6 13.9C111.2 14.3 110.6 14.6 109.8 14.6H105.2V14.4ZM105.2 24.1V18H110C110.6 18 111.1 18.2 111.4 18.4C111.8 18.7 112 19.1 112.2 19.5C112.4 20 112.4 20.5 112.4 21C112.4 21.8 112.3 22.4 112 22.8C111.8 23.2 111.5 23.5 111.1 23.7C110.7 23.9 110.3 23.9 109.9 23.9H105.2V24.1ZM100.9 27.9H110.2C111.8 27.9 113 27.6 114 27.1C115 26.6 115.7 25.8 116.1 24.9C116.6 23.9 116.8 22.7 116.8 21.4C116.8 20.5 116.6 19.6 116.3 18.9C116 18.2 115.6 17.6 115.1 17.2C114.6 16.8 114 16.5 113.4 16.4C113.9 16.3 114.4 16.1 114.8 15.8C115.2 15.5 115.5 15.1 115.7 14.7C115.9 14.3 116.1 13.8 116.2 13.3C116.3 12.8 116.4 12.3 116.4 11.8C116.4 11 116.3 10.2 116.1 9.49999C115.9 8.79999 115.5 8.19999 115 7.59999C114.5 7.09999 113.9 6.59999 113.1 6.29999C112.3 5.99999 111.3 5.79999 110.2 5.79999H101V27.9H100.9Z"
    fill="#1D1D1B"/>
  <path
    d="M86.5 23.6C86.5 24.4 86.6 25.2 86.9 25.7C87.1 26.3 87.5 26.7 87.9 27C88.3 27.3 88.8 27.6 89.4 27.7C89.9 27.8 90.5 27.9 91.1 27.9H98.7V24H92.6C92.4 24 92.2 24 91.9 24C91.7 24 91.5 23.9 91.3 23.8C91.1 23.7 91 23.6 90.9 23.3C90.8 23.1 90.7 22.8 90.7 22.4V5.59998H86.4V23.6H86.5Z"
    fill="#1D1D1B"/>
  <path
    d="M72.4 23.6C72.4 24.4 72.5 25.2 72.8 25.7C73 26.3 73.4 26.7 73.8 27C74.2 27.3 74.7 27.6 75.3 27.7C75.8 27.8 76.4 27.9 77 27.9H84.6V24H78.5C78.3 24 78.1 24 77.8 24C77.6 24 77.4 23.9 77.2 23.8C77 23.7 76.9 23.6 76.8 23.3C76.7 23.1 76.6 22.8 76.6 22.4V5.59998H72.3V23.6H72.4Z"
    fill="#1D1D1B"/>
  <path d="M68.7 5.59998H64.4V27.9H68.7V5.59998Z" fill="#1D1D1B"/>
  <path
    d="M50 14.4V9.39999H54.7C55 9.39999 55.3 9.39999 55.5 9.49999C55.8 9.59999 56 9.69999 56.3 9.89999C56.5 10.1 56.7 10.3 56.8 10.7C56.9 11 57 11.5 57 12C57 12.8 56.8 13.4 56.4 13.9C56 14.3 55.4 14.6 54.6 14.6H50V14.4ZM50 24.1V18H54.8C55.4 18 55.9 18.2 56.2 18.4C56.6 18.7 56.8 19.1 57 19.5C57.2 20 57.2 20.5 57.2 21C57.2 21.8 57.1 22.4 56.8 22.8C56.6 23.2 56.3 23.5 55.9 23.7C55.5 23.9 55.1 23.9 54.7 23.9H50V24.1ZM45.7 27.9H55C56.6 27.9 57.8 27.6 58.8 27.1C59.8 26.6 60.5 25.8 60.9 24.9C61.4 23.9 61.6 22.7 61.6 21.4C61.6 20.5 61.4 19.6 61.1 18.9C60.8 18.2 60.4 17.6 59.9 17.2C59.4 16.8 58.8 16.5 58.2 16.4C58.7 16.3 59.2 16.1 59.6 15.8C60 15.5 60.3 15.1 60.5 14.7C60.7 14.3 60.9 13.8 61 13.3C61.1 12.8 61.2 12.3 61.2 11.8C61.2 11 61.1 10.2 60.9 9.49999C60.7 8.79999 60.3 8.19999 59.8 7.59999C59.3 7.09999 58.7 6.59999 57.9 6.29999C57.1 5.99999 56.1 5.79999 55 5.79999H45.8V27.9H45.7Z"
    fill="#1D1D1B"/>
  <path
    d="M37.1 9.09998C37.1 9.29998 37.2 9.49998 37.3 9.59998C37.4 9.69998 37.6 9.79998 37.8 9.79998H41C41.2 9.79998 41.4 9.69998 41.5 9.59998C41.6 9.49998 41.7 9.29998 41.7 9.09998V6.39998C41.7 6.19998 41.6 5.99998 41.5 5.79998C41.4 5.69998 41.2 5.59998 41 5.59998H37.8C37.6 5.59998 37.4 5.69998 37.3 5.79998C37.2 5.89998 37.1 6.09998 37.1 6.39998V9.09998Z"
    fill="#1D1D1B"/>
  <path d="M41.6 11.7H37.3V27.9H41.6V11.7Z" fill="#1D1D1B"/>
  <path
    d="M18.8 10.4H8.30002C6.40002 10.4 4.90002 11.9 4.90002 13.8V24.4C4.90002 26.3 6.40002 27.8 8.30002 27.8H18.9C20.8 27.8 22.3 26.3 22.3 24.4V13.8C22.3 11.9 20.7 10.4 18.8 10.4ZM18.8 12.8C19.3 12.8 19.7 13.2 19.7 13.7V24.3C19.7 24.8 19.3 25.2 18.8 25.2H8.30002C7.80002 25.2 7.40002 24.8 7.40002 24.3V13.8C7.40002 13.3 7.80002 12.9 8.30002 12.9H18.8V12.8Z"
    fill="#E32213"/>
</svg>
